<mxfile host="Electron" agent="Mozilla/5.0 (Windows NT 10.0; Win64; x64) AppleWebKit/537.36 (KHTML, like Gecko) draw.io/26.0.4 Chrome/128.0.6613.186 Electron/32.2.5 Safari/537.36" version="26.0.4">
  <diagram name="Page-1" id="e7e014a7-5840-1c2e-5031-d8a46d1fe8dd">
    <mxGraphModel dx="1050" dy="621" grid="1" gridSize="10" guides="1" tooltips="1" connect="1" arrows="1" fold="1" page="1" pageScale="1" pageWidth="1169" pageHeight="826" background="none" math="0" shadow="0">
      <root>
        <mxCell id="0" />
        <mxCell id="1" parent="0" />
        <mxCell id="Z9InWNahjU_H1zsMh246-70" value="Admin" style="swimlane;whiteSpace=wrap" parent="1" vertex="1">
          <mxGeometry x="160" y="50" width="300" height="650" as="geometry" />
        </mxCell>
        <mxCell id="Z9InWNahjU_H1zsMh246-71" value="" style="ellipse;shape=startState;fillColor=#000000;strokeColor=#ff0000;" parent="Z9InWNahjU_H1zsMh246-70" vertex="1">
          <mxGeometry x="100" y="42" width="30" height="30" as="geometry" />
        </mxCell>
        <mxCell id="Z9InWNahjU_H1zsMh246-72" value="" style="edgeStyle=elbowEdgeStyle;elbow=vertical;verticalAlign=bottom;endArrow=open;endSize=8;strokeColor=#FF0000;endFill=1;rounded=0;entryX=0.5;entryY=0;entryDx=0;entryDy=0;" parent="Z9InWNahjU_H1zsMh246-70" target="Z9InWNahjU_H1zsMh246-73" edge="1">
          <mxGeometry x="100" y="40" as="geometry">
            <mxPoint x="114.5" y="110" as="targetPoint" />
            <mxPoint x="115.5" y="72" as="sourcePoint" />
            <Array as="points">
              <mxPoint x="95" y="98" />
            </Array>
          </mxGeometry>
        </mxCell>
        <mxCell id="Z9InWNahjU_H1zsMh246-73" value="Chọn chức năng quản lý đơn hàng" style="rounded=1;whiteSpace=wrap;html=1;" parent="Z9InWNahjU_H1zsMh246-70" vertex="1">
          <mxGeometry x="55" y="112" width="120" height="60" as="geometry" />
        </mxCell>
        <mxCell id="Z9InWNahjU_H1zsMh246-74" value="Yêu cầu đăng nhập" style="rounded=1;whiteSpace=wrap;html=1;" parent="Z9InWNahjU_H1zsMh246-70" vertex="1">
          <mxGeometry x="55" y="192" width="120" height="60" as="geometry" />
        </mxCell>
        <mxCell id="Z9InWNahjU_H1zsMh246-104" value="Chọn chức năng tra cứu hóa đơn" style="rounded=1;whiteSpace=wrap;html=1;" parent="Z9InWNahjU_H1zsMh246-70" vertex="1">
          <mxGeometry x="10" y="363" width="120" height="60" as="geometry" />
        </mxCell>
        <mxCell id="Z9InWNahjU_H1zsMh246-105" value="" style="endArrow=open;strokeColor=#FF0000;endFill=1;rounded=0;" parent="Z9InWNahjU_H1zsMh246-70" source="Z9InWNahjU_H1zsMh246-104" target="Z9InWNahjU_H1zsMh246-106" edge="1">
          <mxGeometry relative="1" as="geometry">
            <mxPoint x="205" y="400" as="sourcePoint" />
            <mxPoint x="180" y="393" as="targetPoint" />
            <Array as="points" />
          </mxGeometry>
        </mxCell>
        <mxCell id="Z9InWNahjU_H1zsMh246-106" value="Nhập thông tin đơn hàng" style="rounded=1;whiteSpace=wrap;html=1;" parent="Z9InWNahjU_H1zsMh246-70" vertex="1">
          <mxGeometry x="60" y="500" width="120" height="60" as="geometry" />
        </mxCell>
        <mxCell id="Z9InWNahjU_H1zsMh246-87" value="Hệ thống" style="swimlane;whiteSpace=wrap;startSize=23;" parent="1" vertex="1">
          <mxGeometry x="460" y="50" width="285" height="650" as="geometry" />
        </mxCell>
        <mxCell id="Z9InWNahjU_H1zsMh246-88" value="" style="endArrow=open;strokeColor=#FF0000;endFill=1;rounded=0;exitX=0.5;exitY=1;exitDx=0;exitDy=0;entryX=0.5;entryY=0;entryDx=0;entryDy=0;" parent="Z9InWNahjU_H1zsMh246-87" source="Z9InWNahjU_H1zsMh246-89" target="Z9InWNahjU_H1zsMh246-90" edge="1">
          <mxGeometry relative="1" as="geometry">
            <mxPoint x="126.10000000000001" y="121.26000000000005" as="sourcePoint" />
            <mxPoint x="129.9997413674507" y="172.00012931627464" as="targetPoint" />
            <Array as="points" />
          </mxGeometry>
        </mxCell>
        <mxCell id="Z9InWNahjU_H1zsMh246-89" value="Kiểm tra đăng nhập" style="rounded=1;whiteSpace=wrap;html=1;" parent="Z9InWNahjU_H1zsMh246-87" vertex="1">
          <mxGeometry x="95" y="92" width="120" height="60" as="geometry" />
        </mxCell>
        <mxCell id="Z9InWNahjU_H1zsMh246-90" value="" style="rhombus;fillColor=#ffffc0;strokeColor=#ff0000;" parent="Z9InWNahjU_H1zsMh246-87" vertex="1">
          <mxGeometry x="115" y="212" width="80" height="48" as="geometry" />
        </mxCell>
        <mxCell id="Z9InWNahjU_H1zsMh246-91" value="" style="endArrow=classic;html=1;rounded=0;dashed=1;entryX=0.91;entryY=-0.01;entryDx=0;entryDy=0;entryPerimeter=0;exitX=0.623;exitY=1.02;exitDx=0;exitDy=0;exitPerimeter=0;fillColor=#d80073;strokeColor=light-dark(#ff0000, #FFA9E0);" parent="Z9InWNahjU_H1zsMh246-87" source="Z9InWNahjU_H1zsMh246-92" target="Z9InWNahjU_H1zsMh246-89" edge="1">
          <mxGeometry width="50" height="50" relative="1" as="geometry">
            <mxPoint x="215" y="62" as="sourcePoint" />
            <mxPoint x="210" y="32" as="targetPoint" />
          </mxGeometry>
        </mxCell>
        <mxCell id="Z9InWNahjU_H1zsMh246-92" value="Tài khoản" style="rounded=0;whiteSpace=wrap;html=1;" parent="Z9InWNahjU_H1zsMh246-87" vertex="1">
          <mxGeometry x="175" y="32" width="70" height="30" as="geometry" />
        </mxCell>
        <mxCell id="Z9InWNahjU_H1zsMh246-107" value="" style="rhombus;fillColor=#ffffc0;strokeColor=#ff0000;" parent="Z9InWNahjU_H1zsMh246-87" vertex="1">
          <mxGeometry x="180" y="390" width="80" height="48" as="geometry" />
        </mxCell>
        <mxCell id="Z9InWNahjU_H1zsMh246-108" value="" style="endArrow=open;strokeColor=#FF0000;endFill=1;rounded=0;" parent="Z9InWNahjU_H1zsMh246-87" source="Z9InWNahjU_H1zsMh246-107" target="Z9InWNahjU_H1zsMh246-113" edge="1">
          <mxGeometry relative="1" as="geometry">
            <mxPoint x="159.5" y="458" as="sourcePoint" />
            <mxPoint x="159.5" y="510" as="targetPoint" />
            <Array as="points" />
          </mxGeometry>
        </mxCell>
        <mxCell id="Z9InWNahjU_H1zsMh246-109" value="Đúng" style="edgeLabel;html=1;align=center;verticalAlign=middle;resizable=0;points=[];" parent="Z9InWNahjU_H1zsMh246-108" connectable="0" vertex="1">
          <mxGeometry x="-0.064" y="2" relative="1" as="geometry">
            <mxPoint as="offset" />
          </mxGeometry>
        </mxCell>
        <mxCell id="Z9InWNahjU_H1zsMh246-111" value="Kiểm tra thông tin đơn hàng" style="rounded=1;whiteSpace=wrap;html=1;" parent="Z9InWNahjU_H1zsMh246-87" vertex="1">
          <mxGeometry x="100" y="290" width="120" height="60" as="geometry" />
        </mxCell>
        <mxCell id="Z9InWNahjU_H1zsMh246-112" value="" style="endArrow=open;strokeColor=#FF0000;endFill=1;rounded=0;entryX=0.5;entryY=0;entryDx=0;entryDy=0;" parent="Z9InWNahjU_H1zsMh246-87" source="Z9InWNahjU_H1zsMh246-111" target="Z9InWNahjU_H1zsMh246-107" edge="1">
          <mxGeometry relative="1" as="geometry">
            <mxPoint x="-10" y="403" as="sourcePoint" />
            <mxPoint x="110" y="330" as="targetPoint" />
            <Array as="points" />
          </mxGeometry>
        </mxCell>
        <mxCell id="Z9InWNahjU_H1zsMh246-113" value="Hiển thị danh sách hóa đơn" style="rounded=1;whiteSpace=wrap;html=1;" parent="Z9InWNahjU_H1zsMh246-87" vertex="1">
          <mxGeometry x="160" y="470" width="120" height="60" as="geometry" />
        </mxCell>
        <mxCell id="Z9InWNahjU_H1zsMh246-121" value="Hóa đơn" style="rounded=0;whiteSpace=wrap;html=1;" parent="Z9InWNahjU_H1zsMh246-87" vertex="1">
          <mxGeometry x="210" y="250" width="70" height="30" as="geometry" />
        </mxCell>
        <mxCell id="Z9InWNahjU_H1zsMh246-122" value="" style="endArrow=classic;html=1;rounded=0;dashed=1;entryX=1;entryY=0.3;entryDx=0;entryDy=0;entryPerimeter=0;exitX=0.623;exitY=1.02;exitDx=0;exitDy=0;exitPerimeter=0;fillColor=#d80073;strokeColor=light-dark(#ff0000, #FFA9E0);" parent="Z9InWNahjU_H1zsMh246-87" target="Z9InWNahjU_H1zsMh246-111" edge="1">
          <mxGeometry width="50" height="50" relative="1" as="geometry">
            <mxPoint x="245" y="280" as="sourcePoint" />
            <mxPoint x="230" y="308" as="targetPoint" />
          </mxGeometry>
        </mxCell>
        <mxCell id="4iNcov2NeJL-4e_dCUIF-1" value="" style="ellipse;html=1;shape=endState;fillColor=#000000;strokeColor=#ff0000;" vertex="1" parent="Z9InWNahjU_H1zsMh246-87">
          <mxGeometry x="132" y="600" width="30" height="30" as="geometry" />
        </mxCell>
        <mxCell id="4iNcov2NeJL-4e_dCUIF-4" value="Thông báo không có hóa đơn" style="rounded=1;whiteSpace=wrap;html=1;" vertex="1" parent="Z9InWNahjU_H1zsMh246-87">
          <mxGeometry x="20" y="470" width="120" height="60" as="geometry" />
        </mxCell>
        <mxCell id="Z9InWNahjU_H1zsMh246-117" value="" style="endArrow=open;strokeColor=#FF0000;endFill=1;rounded=0;" parent="Z9InWNahjU_H1zsMh246-87" source="Z9InWNahjU_H1zsMh246-107" target="4iNcov2NeJL-4e_dCUIF-4" edge="1">
          <mxGeometry relative="1" as="geometry">
            <mxPoint x="145" y="450" as="sourcePoint" />
            <mxPoint x="80" y="470" as="targetPoint" />
          </mxGeometry>
        </mxCell>
        <mxCell id="Z9InWNahjU_H1zsMh246-118" value="Sai" style="edgeLabel;html=1;align=center;verticalAlign=middle;resizable=0;points=[];" parent="Z9InWNahjU_H1zsMh246-117" connectable="0" vertex="1">
          <mxGeometry x="0.0104" y="1" relative="1" as="geometry">
            <mxPoint as="offset" />
          </mxGeometry>
        </mxCell>
        <mxCell id="4iNcov2NeJL-4e_dCUIF-8" value="" style="rounded=0;orthogonalLoop=1;jettySize=auto;html=1;strokeColor=light-dark(#ff0000, #ededed);endArrow=none;endFill=0;startArrow=classic;startFill=1;" edge="1" parent="Z9InWNahjU_H1zsMh246-87" source="4iNcov2NeJL-4e_dCUIF-6" target="4iNcov2NeJL-4e_dCUIF-4">
          <mxGeometry relative="1" as="geometry" />
        </mxCell>
        <mxCell id="4iNcov2NeJL-4e_dCUIF-9" value="" style="rounded=0;orthogonalLoop=1;jettySize=auto;html=1;strokeColor=light-dark(#ff0000, #ededed);startArrow=classic;startFill=1;endArrow=none;endFill=0;" edge="1" parent="Z9InWNahjU_H1zsMh246-87" source="4iNcov2NeJL-4e_dCUIF-6" target="Z9InWNahjU_H1zsMh246-113">
          <mxGeometry relative="1" as="geometry">
            <Array as="points">
              <mxPoint x="170" y="540" />
            </Array>
          </mxGeometry>
        </mxCell>
        <mxCell id="4iNcov2NeJL-4e_dCUIF-6" value="" style="shape=line;html=1;strokeWidth=6;strokeColor=#ff0000;" vertex="1" parent="Z9InWNahjU_H1zsMh246-87">
          <mxGeometry x="114" y="552" width="66" height="10" as="geometry" />
        </mxCell>
        <mxCell id="4iNcov2NeJL-4e_dCUIF-7" value="" style="edgeStyle=orthogonalEdgeStyle;html=1;verticalAlign=bottom;endArrow=open;endSize=8;strokeColor=#ff0000;rounded=0;" edge="1" source="4iNcov2NeJL-4e_dCUIF-6" parent="Z9InWNahjU_H1zsMh246-87" target="4iNcov2NeJL-4e_dCUIF-1">
          <mxGeometry relative="1" as="geometry">
            <mxPoint x="80" y="632" as="targetPoint" />
          </mxGeometry>
        </mxCell>
        <mxCell id="Z9InWNahjU_H1zsMh246-93" value="" style="endArrow=open;strokeColor=#FF0000;endFill=1;rounded=0;exitX=1;exitY=0.5;exitDx=0;exitDy=0;entryX=0.037;entryY=0.87;entryDx=0;entryDy=0;entryPerimeter=0;" parent="1" source="Z9InWNahjU_H1zsMh246-74" target="Z9InWNahjU_H1zsMh246-89" edge="1">
          <mxGeometry relative="1" as="geometry">
            <mxPoint x="340" y="400" as="sourcePoint" />
            <mxPoint x="340" y="460" as="targetPoint" />
            <Array as="points" />
          </mxGeometry>
        </mxCell>
        <mxCell id="Z9InWNahjU_H1zsMh246-94" value="" style="endArrow=open;strokeColor=#FF0000;endFill=1;rounded=0;exitX=1;exitY=0.5;exitDx=0;exitDy=0;entryX=0;entryY=0.75;entryDx=0;entryDy=0;" parent="1" source="Z9InWNahjU_H1zsMh246-73" target="Z9InWNahjU_H1zsMh246-89" edge="1">
          <mxGeometry relative="1" as="geometry">
            <mxPoint x="360" y="370" as="sourcePoint" />
            <mxPoint x="564" y="252" as="targetPoint" />
            <Array as="points" />
          </mxGeometry>
        </mxCell>
        <mxCell id="Z9InWNahjU_H1zsMh246-95" value="" style="endArrow=open;strokeColor=#FF0000;endFill=1;rounded=0;exitX=0;exitY=0.5;exitDx=0;exitDy=0;entryX=1;entryY=0.75;entryDx=0;entryDy=0;" parent="1" source="Z9InWNahjU_H1zsMh246-90" target="Z9InWNahjU_H1zsMh246-74" edge="1">
          <mxGeometry relative="1" as="geometry">
            <mxPoint x="609.5" y="390" as="sourcePoint" />
            <mxPoint x="350" y="378" as="targetPoint" />
          </mxGeometry>
        </mxCell>
        <mxCell id="Z9InWNahjU_H1zsMh246-96" value="Sai" style="edgeLabel;html=1;align=center;verticalAlign=middle;resizable=0;points=[];" parent="Z9InWNahjU_H1zsMh246-95" connectable="0" vertex="1">
          <mxGeometry x="0.0104" y="1" relative="1" as="geometry">
            <mxPoint as="offset" />
          </mxGeometry>
        </mxCell>
        <mxCell id="Z9InWNahjU_H1zsMh246-99" value="" style="endArrow=open;strokeColor=#FF0000;endFill=1;rounded=0;" parent="1" source="Z9InWNahjU_H1zsMh246-90" target="Z9InWNahjU_H1zsMh246-104" edge="1">
          <mxGeometry relative="1" as="geometry">
            <mxPoint x="430" y="438" as="sourcePoint" />
            <mxPoint x="335" y="360" as="targetPoint" />
            <Array as="points" />
          </mxGeometry>
        </mxCell>
        <mxCell id="Z9InWNahjU_H1zsMh246-100" value="Đúng" style="edgeLabel;html=1;align=center;verticalAlign=middle;resizable=0;points=[];" parent="Z9InWNahjU_H1zsMh246-99" connectable="0" vertex="1">
          <mxGeometry x="-0.064" y="2" relative="1" as="geometry">
            <mxPoint as="offset" />
          </mxGeometry>
        </mxCell>
        <mxCell id="Z9InWNahjU_H1zsMh246-110" value="" style="endArrow=open;strokeColor=#FF0000;endFill=1;rounded=0;exitX=1;exitY=0.5;exitDx=0;exitDy=0;entryX=0;entryY=0.5;entryDx=0;entryDy=0;" parent="1" source="Z9InWNahjU_H1zsMh246-106" target="Z9InWNahjU_H1zsMh246-111" edge="1">
          <mxGeometry relative="1" as="geometry">
            <mxPoint x="545" y="480" as="sourcePoint" />
            <mxPoint x="550" y="380" as="targetPoint" />
            <Array as="points" />
          </mxGeometry>
        </mxCell>
      </root>
    </mxGraphModel>
  </diagram>
</mxfile>
